<!--?xml version="1.0" standalone="no"?-->
              <svg id="sw-js-blob-svg" viewBox="0 0 100 100" xmlns="http://www.w3.org/2000/svg" version="1.1">
                    <defs> 
                        <linearGradient id="sw-gradient" x1="0" x2="1" y1="1" y2="0">
                            <stop id="stop1" stop-color="rgba(67.165, 65.758, 65.092, 1)" offset="0%"></stop>
                            <stop id="stop2" stop-color="rgba(23.906, 23.906, 23.906, 1)" offset="100%"></stop>
                        </linearGradient>
                    </defs>
                <path fill="url(#sw-gradient)" d="M24.6,-27.6C32.5,-22.6,40,-15.5,42.8,-6.6C45.5,2.4,43.4,13.1,38.1,21.6C32.7,30.1,24.1,36.4,14.5,40.1C4.8,43.8,-6,44.9,-14.6,41.3C-23.3,37.7,-29.8,29.3,-33.3,20.5C-36.8,11.8,-37.3,2.5,-36.4,-7.1C-35.6,-16.7,-33.2,-26.8,-26.9,-32.1C-20.6,-37.4,-10.3,-38,-1,-36.8C8.3,-35.6,16.6,-32.7,24.6,-27.6Z" width="100%" height="100%" transform="translate(50 50)" style="transition: all 0.3s ease 0s;" stroke-width="0" stroke="url(#sw-gradient)"></path>
              </svg>